<?xml version="1.0" encoding="utf-8"?>
<!-- Generator: Adobe Illustrator 16.0.0, SVG Export Plug-In . SVG Version: 6.00 Build 0)  -->
<!DOCTYPE svg PUBLIC "-//W3C//DTD SVG 1.1//EN" "http://www.w3.org/Graphics/SVG/1.1/DTD/svg11.dtd">
<svg version="1.1" id="Layer_1" xmlns="http://www.w3.org/2000/svg" xmlns:xlink="http://www.w3.org/1999/xlink" x="0px" y="0px"
	 width="100px" height="100px" viewBox="0 0 100 100" enable-background="new 0 0 100 100" xml:space="preserve">
<text transform="matrix(1 0 0 1 38.25 36.5684)" fill="#4D4D4D" font-family="'BentonSans-Bold'" font-size="37.9358">m</text>
<g id="z4iC4r_13_">
	<g>
		
			<path fill="#ABE1E2" stroke="#ABE1E2" stroke-width="5.676" stroke-linecap="round" stroke-linejoin="round" stroke-miterlimit="10" d="
			M78.082,53.236c-0.828,0-1.456,0-2.079,0c-11.548,0-23.099,0.018-34.645-0.012c-8.238-0.017-14.385-4.823-16.322-12.812
			C23.164,32.7,21.407,24.961,19.6,17.236c-0.801-3.44-1.605-6.878-2.458-10.555c2.361-0.465,4.457-0.875,6.719-1.322
			c0.772,3.18,1.525,6.173,2.23,9.175c1.869,7.905,3.68,15.823,5.6,23.721c1.356,5.567,4.706,8.12,10.413,8.12
			c11.232,0.004,22.466,0.002,33.707,0.002c0.735,0,1.471,0,2.271,0C78.082,48.745,78.082,50.82,78.082,53.236z M82.549,94.771
			c-0.798,0.061-1.242,0.057-1.675,0.131c-1.995,0.354-2.888-0.442-3.323-2.461c-2.115-9.803-4.396-19.576-6.555-29.373
			c-0.309-1.404-0.85-1.926-2.379-1.916c-10.729,0.072-21.46,0.072-32.192-0.004c-1.579-0.012-2.008,0.599-2.318,1.986
			c-2.243,10.104-4.559,20.189-6.911,30.268c-0.125,0.548-0.678,1.307-1.143,1.404c-1.062,0.202-2.198,0.064-3.388,0.064
			c0.057-0.654,0.052-0.979,0.121-1.281c2.57-11.324,5.142-22.658,7.727-33.984c0.558-2.434,0.958-2.679,3.791-2.679
			c12.202,0.011,24.401,0.021,36.6,0.023c2.875,0,3.15,0.188,3.769,2.905c1.933,8.48,3.856,16.963,5.778,25.443
			C81.146,88.383,81.818,91.473,82.549,94.771z"/>
		
			<path fill="#ABE1E2" stroke="#ABE1E2" stroke-width="5.676" stroke-linecap="round" stroke-linejoin="round" stroke-miterlimit="10" d="
			M78.082,53.236c0-2.416,0-4.491,0-6.859c-0.803,0-1.536,0-2.271,0c-11.24,0-22.475,0.002-33.707-0.002
			c-5.707,0-9.056-2.552-10.413-8.12c-1.92-7.897-3.731-15.815-5.6-23.721c-0.706-3.002-1.458-5.996-2.23-9.175
			c-2.262,0.447-4.358,0.856-6.719,1.322c0.853,3.677,1.657,7.115,2.458,10.555c1.807,7.726,3.563,15.464,5.436,23.177
			c1.938,7.989,8.084,12.796,16.322,12.812c11.546,0.029,23.097,0.012,34.645,0.012C76.626,53.236,77.254,53.236,78.082,53.236z"/>
		
			<path fill="#ABE1E2" stroke="#ABE1E2" stroke-width="5.676" stroke-linecap="round" stroke-linejoin="round" stroke-miterlimit="10" d="
			M82.549,94.771c-0.73-3.299-1.402-6.389-2.099-9.472c-1.923-8.481-3.847-16.963-5.778-25.444c-0.617-2.717-0.893-2.904-3.77-2.904
			c-12.198-0.003-24.397-0.014-36.599-0.023c-2.833,0-3.233,0.245-3.791,2.678c-2.584,11.328-5.156,22.66-7.727,33.985
			c-0.068,0.302-0.064,0.627-0.121,1.281c1.19,0,2.325,0.138,3.388-0.065c0.465-0.098,1.018-0.855,1.143-1.402
			c2.352-10.078,4.668-20.165,6.911-30.269c0.311-1.389,0.74-1.999,2.318-1.987c10.732,0.076,21.463,0.076,32.192,0.004
			c1.53-0.01,2.069,0.513,2.379,1.916c2.157,9.798,4.438,19.572,6.555,29.373c0.437,2.02,1.328,2.816,3.323,2.463
			C81.307,94.827,81.751,94.831,82.549,94.771z"/>
	</g>
</g>
</svg>
