<?xml version="1.0" encoding="utf-8"?>
<!-- Generator: Adobe Illustrator 16.0.0, SVG Export Plug-In . SVG Version: 6.00 Build 0)  -->
<!DOCTYPE svg PUBLIC "-//W3C//DTD SVG 1.1//EN" "http://www.w3.org/Graphics/SVG/1.1/DTD/svg11.dtd">
<svg version="1.1" id="Layer_1" xmlns="http://www.w3.org/2000/svg" xmlns:xlink="http://www.w3.org/1999/xlink" x="0px" y="0px"
	 width="40px" height="40px" viewBox="0 0 40 40" enable-background="new 0 0 40 40" xml:space="preserve">
<text transform="matrix(1 0 0 1 14.2529 14.5)" fill="#4D4D4D" font-family="'BentonSans-Bold'" font-size="15.6266">m</text>
<g id="z4iC4r_13_">
	<g>
		
			<path fill="#ABE1E2" stroke="#ABE1E2" stroke-width="2.3381" stroke-linecap="round" stroke-linejoin="round" stroke-miterlimit="10" d="
			M30.66,21.366c-0.342,0-0.6,0-0.855,0c-4.758,0-9.516,0.007-14.271-0.005c-3.394-0.006-5.926-1.986-6.724-5.277
			C8.038,12.907,7.314,9.719,6.57,6.537C6.24,5.12,5.909,3.703,5.558,2.189c0.973-0.192,1.836-0.36,2.768-0.544
			c0.318,1.31,0.628,2.542,0.919,3.779c0.77,3.256,1.516,6.518,2.307,9.771c0.559,2.293,1.938,3.345,4.289,3.345
			c4.627,0.002,9.255,0.001,13.884,0.001c0.305,0,0.606,0,0.938,0C30.66,19.516,30.66,20.371,30.66,21.366z M32.5,38.475
			c-0.328,0.025-0.512,0.023-0.689,0.055c-0.822,0.146-1.188-0.182-1.369-1.014c-0.871-4.037-1.812-8.063-2.699-12.1
			c-0.127-0.579-0.35-0.794-0.979-0.79c-4.421,0.03-8.841,0.03-13.262-0.001c-0.65-0.005-0.827,0.246-0.955,0.818
			c-0.924,4.16-1.878,8.315-2.847,12.468c-0.052,0.226-0.279,0.538-0.471,0.578c-0.438,0.084-0.905,0.026-1.396,0.026
			c0.023-0.27,0.021-0.404,0.05-0.527c1.059-4.665,2.118-9.334,3.183-13.999c0.229-1.003,0.395-1.104,1.562-1.104
			c5.026,0.005,10.052,0.009,15.076,0.009c1.185,0,1.298,0.078,1.553,1.197c0.796,3.493,1.589,6.987,2.38,10.48
			C31.923,35.844,32.199,37.116,32.5,38.475z"/>
		
			<path fill="#ABE1E2" stroke="#ABE1E2" stroke-width="2.3381" stroke-linecap="round" stroke-linejoin="round" stroke-miterlimit="10" d="
			M30.66,21.366c0-0.996,0-1.85,0-2.826c-0.33,0-0.633,0-0.938,0c-4.629,0-9.257,0.001-13.884-0.001
			c-2.351,0-3.73-1.051-4.289-3.345c-0.791-3.253-1.537-6.515-2.307-9.771c-0.291-1.237-0.601-2.47-0.919-3.779
			C7.394,1.829,6.53,1.997,5.558,2.189C5.909,3.703,6.24,5.12,6.57,6.537c0.744,3.183,1.468,6.37,2.239,9.547
			c0.798,3.291,3.33,5.271,6.724,5.277c4.756,0.012,9.514,0.005,14.271,0.005C30.061,21.366,30.318,21.366,30.66,21.366z"/>
		
			<path fill="#ABE1E2" stroke="#ABE1E2" stroke-width="2.3381" stroke-linecap="round" stroke-linejoin="round" stroke-miterlimit="10" d="
			M32.5,38.475c-0.301-1.357-0.577-2.631-0.863-3.9c-0.791-3.493-1.585-6.987-2.381-10.48c-0.255-1.119-0.367-1.197-1.553-1.197
			c-5.025,0-10.05-0.004-15.076-0.008c-1.167,0-1.332,0.1-1.562,1.103c-1.064,4.666-2.124,9.334-3.183,13.999
			c-0.028,0.124-0.026,0.259-0.05,0.527c0.49,0,0.958,0.058,1.396-0.026c0.191-0.04,0.419-0.353,0.471-0.578
			c0.969-4.151,1.923-8.308,2.847-12.468c0.128-0.572,0.305-0.823,0.955-0.818c4.421,0.031,8.841,0.031,13.261,0.001
			c0.631-0.004,0.854,0.211,0.979,0.79c0.889,4.035,1.829,8.062,2.7,12.1c0.18,0.832,0.547,1.159,1.369,1.015
			C31.988,38.498,32.172,38.5,32.5,38.475z"/>
	</g>
</g>
</svg>
