<?xml version="1.0" encoding="utf-8"?>
<!-- Generator: Adobe Illustrator 16.0.0, SVG Export Plug-In . SVG Version: 6.00 Build 0)  -->
<!DOCTYPE svg PUBLIC "-//W3C//DTD SVG 1.1//EN" "http://www.w3.org/Graphics/SVG/1.1/DTD/svg11.dtd">
<svg version="1.1" id="Layer_1" xmlns="http://www.w3.org/2000/svg" xmlns:xlink="http://www.w3.org/1999/xlink" x="0px" y="0px"
	 width="512px" height="512px" viewBox="0 0 512 512" enable-background="new 0 0 512 512" xml:space="preserve">
<g>
	<g enable-background="new    ">
		<path fill="#4D4D4D" d="M207.877,185.456V80.566h31.698V97.09c1.537-2.052,3.423-4.163,5.667-6.341
			c2.24-2.178,4.802-4.178,7.684-6.006c2.884-1.823,6.066-3.328,9.558-4.513c3.492-1.184,7.314-1.777,11.479-1.777
			c8.771,0,15.398,1.666,19.887,4.993c4.477,3.332,7.424,7.875,8.832,13.644c1.602-1.925,3.504-4.006,5.717-6.245
			c2.209-2.243,4.787-4.274,7.732-6.102c2.947-1.823,6.156-3.328,9.652-4.513c3.488-1.184,7.346-1.777,11.576-1.777
			c5.184,0,9.713,0.785,13.592,2.35c3.867,1.569,7.088,3.798,9.65,6.68c2.562,2.881,4.438,6.259,5.621,10.132
			c1.186,3.874,1.771,8.179,1.771,12.919v74.92h-31.695v-66.469c0-4.735-0.754-8.32-2.252-10.755
			c-1.51-2.436-4.566-3.652-9.176-3.652c-3.91,0-7.525,0.994-10.857,2.978c-3.328,1.985-6.719,4.481-10.18,7.494v70.404h-31.6
			v-66.469c0-4.735-0.758-8.32-2.258-10.755c-1.51-2.436-4.562-3.652-9.176-3.652c-3.973,0-7.62,0.994-10.948,2.978
			c-3.329,1.985-6.757,4.481-10.277,7.494v70.404h-31.698V185.456z"/>
	</g>
	<g id="z4iC4r_13_">
		<g>
			
				<path fill="#ABE1E2" stroke="#ABE1E2" stroke-width="29.4331" stroke-linecap="round" stroke-linejoin="round" stroke-miterlimit="10" d="
				M402.422,271.889c-4.297,0-7.551,0-10.781,0c-59.883,0-119.779,0.092-179.653-0.06c-42.718-0.087-74.593-25.009-84.638-66.44
				c-9.707-39.99-18.817-80.122-28.188-120.182c-4.155-17.837-8.322-35.665-12.746-54.732c12.243-2.413,23.111-4.537,34.84-6.856
				c4.003,16.491,7.911,32.012,11.563,47.579c9.693,40.991,19.085,82.05,29.041,123.005c7.03,28.867,24.403,42.106,53.997,42.106
				c58.243,0.021,116.499,0.011,174.786,0.011c3.812,0,7.627,0,11.779,0C402.422,248.6,402.422,259.361,402.422,271.889z
				 M425.584,487.271c-4.137,0.313-6.441,0.293-8.686,0.678c-10.346,1.839-14.975-2.293-17.232-12.76
				c-10.969-50.834-22.799-101.514-33.988-152.315c-1.602-7.283-4.406-9.987-12.336-9.937
				c-55.635,0.375-111.281,0.375-166.935-0.021c-8.187-0.062-10.412,3.104-12.021,10.301
				c-11.632,52.392-23.642,104.692-35.838,156.952c-0.648,2.842-3.515,6.775-5.925,7.283c-5.507,1.048-11.399,0.333-17.569,0.333
				c0.296-3.392,0.269-5.074,0.628-6.644c13.325-58.724,26.665-117.496,40.069-176.229c2.892-12.619,4.968-13.891,19.657-13.891
				c63.273,0.057,126.532,0.11,189.793,0.123c14.906,0,16.336,0.976,19.539,15.063c10.023,43.976,19.998,87.961,29.965,131.937
				C418.312,454.145,421.797,470.165,425.584,487.271z"/>
			
				<path fill="#ABE1E2" stroke="#ABE1E2" stroke-width="29.4331" stroke-linecap="round" stroke-linejoin="round" stroke-miterlimit="10" d="
				M402.422,271.889c0-12.527,0-23.289,0-35.569c-4.164,0-7.967,0-11.779,0c-58.287,0-116.543,0.01-174.786-0.011
				c-29.594,0-46.962-13.231-53.997-42.106c-9.956-40.951-19.348-82.01-29.041-123.005c-3.661-15.567-7.561-31.093-11.563-47.579
				c-11.729,2.319-22.597,4.438-34.84,6.856c4.424,19.067,8.591,36.895,12.746,54.732c9.37,40.064,18.475,80.192,28.188,120.187
				c10.05,41.426,41.92,66.354,84.638,66.436c59.874,0.15,119.771,0.061,179.653,0.061
				C394.871,271.889,398.125,271.889,402.422,271.889z"/>
			
				<path fill="#ABE1E2" stroke="#ABE1E2" stroke-width="29.4331" stroke-linecap="round" stroke-linejoin="round" stroke-miterlimit="10" d="
				M425.584,487.271c-3.787-17.106-7.271-33.129-10.883-49.115c-9.971-43.982-19.947-87.963-29.965-131.943
				c-3.197-14.089-4.627-15.061-19.547-15.061c-63.254-0.017-126.514-0.07-189.785-0.12c-14.69,0-16.767,1.27-19.66,13.884
				c-13.397,58.743-26.737,117.505-40.068,176.232c-0.354,1.563-0.331,3.252-0.627,6.644c6.17,0,12.057,0.715,17.566-0.338
				c2.413-0.507,5.279-4.437,5.928-7.272c12.196-52.261,24.206-104.565,35.838-156.957c1.613-7.203,3.839-10.367,12.019-10.307
				c55.653,0.396,111.299,0.396,166.936,0.021c7.938-0.053,10.73,2.658,12.338,9.936c11.188,50.807,23.014,101.492,33.988,152.314
				c2.264,10.473,6.887,14.604,17.232,12.771C419.143,487.561,421.447,487.58,425.584,487.271z"/>
		</g>
	</g>
</g>
</svg>
